# xmcd CD database file generated by Grip 3.2.0
# 
# Track frame offsets:
#       150
#       27886
#       53480
#       95339
#       130604
#       151730
#       158160
#       191344
#       217353
#       222129
#       237302
#       243462
#       248306
#       255308
#       261275
# 
# Disc length: 3568 seconds
# 
# Revision: 1
# Processed by: cddbd v1.5.2PL0 Copyright (c) Steve Scherf et al.
# Submitted via: Grip 3.2.0
# 
DISCID=bd0dee0f
DTITLE=Pimentola - MM - MMV
DYEAR=2005
DGENRE=Other
TTITLE0=Tuoni Pauloo Tiukoin Sitein I
TTITLE1=Tuoni Pauloo Tiukoin Sitein II
TTITLE2=Tuoni Pauloo Tiukoin Sitein III
TTITLE3=Kuolleiden Kieli
TTITLE4=Untitled II. (Älymystö Remix)
TTITLE5=Hämärän Seppele I
TTITLE6=Hämärän Seppele II
TTITLE7=Hämärän Seppele III
TTITLE8=Hämärän Seppele IV
TTITLE9=Hämärän Seppele V
TTITLE10=Hämärän Seppele VI
TTITLE11=Hämärän Seppele VII
TTITLE12=Hämärän Seppele VIII
TTITLE13=Hämärän Seppele IX
TTITLE14=Outro
EXTD=YEAR: 2005
EXTT0=
EXTT1=
EXTT2=
EXTT3=
EXTT4=
EXTT5=
EXTT6=
EXTT7=
EXTT8=
EXTT9=
EXTT10=
EXTT11=
EXTT12=
EXTT13=
EXTT14=
PLAYORDER=
